<svg width="119" height="100" viewBox="0 0 119 100" fill="none" xmlns="http://www.w3.org/2000/svg">
<path d="M0.754063 99.0509V95.2436H0V95.084H2.61409C2.9576 95.084 3.23409 95.1068 3.45193 95.16C3.66977 95.2132 3.86248 95.3196 4.02167 95.4791C4.18086 95.6387 4.25627 95.8211 4.25627 96.0339C4.25627 96.2923 4.13897 96.5051 3.90437 96.6647C3.66977 96.8242 3.27599 96.9458 2.72301 97.0294V97.0446C3.12517 97.113 3.44355 97.2422 3.70329 97.4398C3.96302 97.6374 4.0887 97.9642 4.0887 98.4277C4.0887 98.6937 4.12221 98.8609 4.19762 98.9369C4.27303 99.0129 4.37357 99.0509 4.49924 99.0509C4.58303 99.0509 4.68357 99.0357 4.80087 99.0053V99.1573C4.59141 99.218 4.3987 99.2485 4.206 99.2485C3.81221 99.2485 3.53572 99.1573 3.37653 98.9673C3.21734 98.7773 3.13355 98.5949 3.14193 98.4125L3.15869 97.8882C3.15869 97.7058 3.09166 97.5234 2.9576 97.3486C2.82355 97.1738 2.52192 97.0826 2.04435 97.0826H1.60029V99.0357H2.34597V99.1953H0V99.0357H0.754063V99.0509ZM1.60029 95.2436V96.9458H2.23705C2.51354 96.9458 2.72301 96.9306 2.86544 96.9002C3.00787 96.8698 3.12517 96.7862 3.20896 96.6495C3.29274 96.5127 3.33464 96.2999 3.33464 96.0111C3.33464 95.7679 3.29274 95.5931 3.20058 95.4868C3.11679 95.3728 3.00787 95.312 2.8822 95.2816C2.75652 95.2588 2.59733 95.2436 2.39625 95.2436H1.60029Z" fill="white"/>
<path d="M16.6394 95.2436V97.0066H17.0667C17.2175 97.0066 17.3432 96.9914 17.4521 96.9686C17.5611 96.9458 17.6532 96.8774 17.737 96.7634C17.8208 96.6495 17.8711 96.4747 17.8794 96.2391H18.0638V97.9793H17.8794C17.8627 97.645 17.7873 97.4322 17.6532 97.3258C17.5276 97.2194 17.3265 97.1662 17.0584 97.1662H16.6311V99.0509H17.603C18.1559 99.0509 18.533 98.9521 18.7424 98.7545C18.9519 98.5569 19.0776 98.2453 19.1195 97.835H19.3038L19.2535 99.2105H15.0308V99.0509H15.7848V95.2436H15.0308V95.084H19.0776L19.1614 96.1859H18.977C18.9184 95.8515 18.7843 95.6083 18.6 95.464C18.4073 95.3196 18.0889 95.2436 17.6365 95.2436H16.6394Z" fill="white"/>
<path d="M33.2038 99.2028H29.5508V99.0433L32.2905 95.236H31.1678C30.7573 95.236 30.4724 95.312 30.3132 95.4564C30.154 95.6007 30.0367 95.8439 29.9613 96.1859H29.7938L29.8692 95.084H33.2876V95.198L30.5059 99.0509H31.6705C32.0057 99.0509 32.257 99.0205 32.4246 98.9673C32.5922 98.9141 32.743 98.7697 32.8687 98.5493C32.9943 98.3213 33.0781 98.0933 33.1116 97.8578H33.2876L33.2038 99.2028Z" fill="white"/>
<path d="M44.3222 99.0509V95.2436H43.543V95.084H45.9476V95.2436H45.16V99.0509H45.9476V99.2105H43.543V99.0509H44.3222Z" fill="white"/>
<path d="M56.9567 99.0509V95.2436H56.211V95.084H58.4564C58.9508 95.084 59.3781 95.1448 59.73 95.2664C60.0819 95.388 60.3835 95.6235 60.6181 95.9807C60.8527 96.3379 60.97 96.7179 60.97 97.1358C60.97 97.5766 60.8359 97.9718 60.5762 98.3137C60.3165 98.6633 60.0148 98.8913 59.6797 99.0129C59.3362 99.1345 58.9256 99.1953 58.4397 99.1953H56.2026V99.0357H56.9567V99.0509ZM57.8029 95.2436V99.0509H58.4229C58.7497 99.0509 59.0094 99.0281 59.2189 98.9749C59.42 98.9217 59.5959 98.8153 59.73 98.6405C59.864 98.4657 59.9562 98.2529 59.9981 97.9869C60.0484 97.721 60.0651 97.379 60.0651 96.9534C60.0651 96.4443 59.9897 96.0567 59.8389 95.8059C59.6881 95.5551 59.5038 95.3956 59.2859 95.3348C59.0681 95.274 58.7832 95.2436 58.4313 95.2436H57.8029Z" fill="white"/>
<path d="M72.7083 95.2436V97.0066H73.1356C73.2864 97.0066 73.4121 96.9914 73.521 96.9686C73.6299 96.9458 73.7221 96.8774 73.8059 96.7634C73.8896 96.6495 73.9399 96.4747 73.9483 96.2391H74.1326V97.9793H73.9483C73.9315 97.645 73.8561 97.4322 73.7221 97.3258C73.5964 97.2194 73.3953 97.1662 73.1272 97.1662H72.6999V99.0509H73.6718C74.2248 99.0509 74.6018 98.9521 74.8113 98.7545C75.0207 98.5569 75.1464 98.2453 75.1883 97.835H75.3726L75.3224 99.2105H71.0996V99.0509H71.8537V95.2436H71.0996V95.084H75.1548L75.2386 96.1859H75.0543C74.9956 95.8515 74.8615 95.6083 74.6772 95.464C74.4845 95.3196 74.1661 95.2436 73.7137 95.2436H72.7083Z" fill="white"/>
<path d="M89.8508 95.2436V99.3016H89.7083L86.5748 95.2284H86.558V99.0509H87.3623V99.2105H85.6699V99.0509H86.3737V95.2436H85.6196V95.084H87.4378L89.6581 97.9718H89.6748V95.2436H88.8872V95.084H90.5797V95.2436H89.8508Z" fill="white"/>
<path d="M104.086 95.0388V96.2623H103.935C103.768 95.5175 103.34 95.1452 102.653 95.1452C102.285 95.1452 102.008 95.2743 101.841 95.5251C101.673 95.7759 101.581 96.3079 101.581 97.1134C101.581 97.7821 101.614 98.2305 101.69 98.4737C101.765 98.7169 101.891 98.884 102.075 98.9904C102.259 99.0968 102.452 99.1424 102.67 99.1424C102.955 99.1424 103.223 99.0512 103.474 98.8612C103.726 98.6789 103.918 98.3749 104.052 97.9721H104.22L104.161 99.226H104.019C103.96 99.0968 103.876 98.9828 103.759 98.8916C103.382 99.1576 102.997 99.2944 102.603 99.2944C102.1 99.2944 101.639 99.0892 101.229 98.6789C100.818 98.2685 100.609 97.7669 100.609 97.1666C100.609 96.5586 100.81 96.0419 101.221 95.6239C101.631 95.1983 102.1 94.9932 102.636 94.9932C103.047 94.9932 103.416 95.1224 103.726 95.3807C103.818 95.2515 103.885 95.1451 103.935 95.0464H104.086V95.0388Z" fill="white"/>
<path d="M116.084 95.2436V97.0066H116.511C116.662 97.0066 116.788 96.9914 116.896 96.9686C117.005 96.9458 117.098 96.8774 117.181 96.7634C117.265 96.6495 117.315 96.4747 117.324 96.2391H117.508V97.9793H117.324C117.307 97.645 117.232 97.4322 117.098 97.3258C116.972 97.2194 116.771 97.1662 116.503 97.1662H116.075V99.0509H117.047C117.6 99.0509 117.977 98.9521 118.187 98.7545C118.396 98.5569 118.522 98.2453 118.564 97.835H118.748L118.698 99.2105H114.475V99.0509H115.229V95.2436H114.475V95.084H118.522L118.606 96.1859H118.421C118.363 95.8515 118.229 95.6083 118.044 95.464C117.852 95.3196 117.533 95.2436 117.081 95.2436H116.084Z" fill="white"/>
<path d="M77.8947 66.3734V71.2902H118.757V25.2151H91.8365V0.638672H26.9201V25.2151H0V71.2902H40.8535V66.3734H38.9432V69.5575H1.91029V26.9478H38.9432V35.9606H28.8304V28.6804H26.9201V37.6933H91.8365V28.6804H89.9262V35.9606H79.805V26.9478H116.838V69.5575H79.805V66.3734H77.8947ZM77.8947 25.2151V35.9606H40.8619V25.2151H28.8304V2.37133H89.9262V25.2151H77.8947Z" fill="white"/>
<path d="M40.862 35.9678H38.9517V42.526H40.862V35.9678Z" fill="white"/>
<path d="M79.8048 35.4893H77.8945V42.5263H79.8048V35.4893Z" fill="white"/>
<path d="M45.537 55.1115V63.6532H48.7711V64.6411H37.2339V63.6532H40.0323V45.2399H37.2339V44.252H47.8913C51.05 44.252 53.3038 44.7915 54.6444 45.863C55.9849 46.9345 56.6552 48.196 56.6552 49.6323C56.6552 51.0914 55.9095 52.3681 54.4265 53.4624C52.9435 54.5567 50.3127 55.1039 46.534 55.1039H45.537V55.1115ZM45.537 45.2399V54.1236H46.6764C47.6735 54.1236 48.4359 54.0476 48.9805 53.9032C49.5251 53.7588 49.9692 53.3636 50.3127 52.7177C50.6562 52.0717 50.8322 51.0458 50.8322 49.6399C50.8322 48.2644 50.6646 47.2537 50.3211 46.623C49.9776 45.9922 49.5419 45.6046 49.014 45.4603C48.4862 45.3159 47.7237 45.2475 46.7435 45.2475H45.537V45.2399Z" fill="white"/>
<path d="M67.0196 54.2451V63.6532H69.9521V64.6411H58.6914V63.6532H61.5401V45.2399H58.6914V44.252H69.9521C73.5632 44.252 76.0265 44.7535 77.3419 45.7566C78.6573 46.7598 79.3192 47.8389 79.3192 48.9788C79.3192 50.1947 78.716 51.2358 77.5095 52.0945C76.303 52.9533 74.4932 53.5232 72.0802 53.7968V53.8576C73.8983 54.2755 75.264 54.8227 76.1605 55.5066C77.057 56.1906 77.6268 56.9429 77.853 57.7789C78.0792 58.6072 78.2049 59.5951 78.2216 60.7502C78.2384 61.8977 78.3473 62.6121 78.54 62.8857C78.7327 63.1592 79.093 63.296 79.6209 63.296C80.199 63.296 80.8357 63.1288 81.5144 62.7945V63.9496C80.4168 64.4663 79.2103 64.7247 77.8781 64.7247C76.1354 64.7247 74.7362 64.3295 73.6889 63.5392C72.6416 62.7489 72.0802 61.3126 72.0048 59.2379C71.9294 57.1633 71.6362 55.8106 71.1083 55.1799C70.5805 54.5491 69.6253 54.2376 68.2261 54.2376H67.0196V54.2451ZM67.0196 45.2399V53.2496H69.1477C70.6224 53.2496 71.6445 53.0064 72.2143 52.5125C72.784 52.0185 73.0689 50.8938 73.0689 49.1384C73.0689 47.4513 72.8008 46.3798 72.2645 45.9238C71.7283 45.4679 70.7983 45.2399 69.4661 45.2399H67.0196Z" fill="white"/>
<path d="M4.42384 83.4729V87.8426H6.1498V88.3517H0V87.8426H1.49137V78.4193H0V77.9102H5.68061C7.36468 77.9102 8.56281 78.1837 9.27498 78.7385C9.98715 79.2856 10.3474 79.9316 10.3474 80.6687C10.3474 81.4135 9.95363 82.067 9.15768 82.6294C8.3701 83.1917 6.96252 83.4729 4.95168 83.4729H4.42384ZM4.42384 78.4193V82.9637H5.02709C5.55493 82.9637 5.96548 82.9258 6.25035 82.8498C6.53521 82.7738 6.77819 82.5686 6.96252 82.2418C7.14684 81.915 7.23901 81.3907 7.23901 80.6687C7.23901 79.962 7.14684 79.4452 6.97089 79.1261C6.79495 78.8069 6.56035 78.6017 6.27548 78.5333C5.99061 78.4573 5.58845 78.4269 5.06898 78.4269H4.42384V78.4193Z" fill="white"/>
<path d="M17.4524 78.4193V87.8426H19.0778V88.3517H12.9531V87.8426H14.5199V78.4193H12.9531V77.9102H19.0778V78.4193H17.4524Z" fill="white"/>
<path d="M26.8361 78.4193V82.8346H27.2215C28.4615 82.8346 29.1821 82.219 29.3832 80.9879H29.9613V85.2512H29.3832C29.2826 83.9745 28.5621 83.3361 27.2215 83.3361H26.8361V87.8426H28.8805C30.6818 87.8426 31.8632 86.8698 32.4162 84.9244H33.0362L32.7848 88.3517H22.3955V87.8426H23.912V78.4193H22.3955V77.9102H32.4162L32.5754 80.8207H31.9972C31.6202 79.8328 31.151 79.1869 30.598 78.8829C30.0451 78.5789 29.3078 78.4193 28.3945 78.4193H26.8361Z" fill="white"/>
<path d="M40.8366 78.4191V87.8423H42.3532V88.3515H36.3374V87.8423H37.9042V78.4191H36.3374V77.9099H42.3532V78.4191H40.8366ZM43.258 81.4437L48.2097 87.8423H49.6005V88.3515H43.3083V87.8423H44.7745L40.9539 82.8571L44.9253 79.3082C45.2521 79.0195 45.4197 78.8067 45.4197 78.6699C45.4197 78.4951 45.1851 78.4115 44.7243 78.4115H43.9199V77.9023H48.4862V78.4115H48.0338C47.4975 78.4115 47.0786 78.4723 46.777 78.5939C46.4754 78.7155 46.0229 79.0422 45.4197 79.559L43.258 81.4437Z" fill="white"/>
<path d="M57.0489 83.0245V87.8426H58.6073V88.3517H52.6167V87.8426H54.1332V78.4193H52.6167V77.9102H58.6157C60.5344 77.9102 61.8498 78.1685 62.5536 78.6777C63.2574 79.1945 63.6093 79.7416 63.6093 80.3268C63.6093 80.9499 63.2909 81.4819 62.6457 81.9226C62.0006 82.3634 61.0371 82.6522 59.7552 82.7966V82.827C60.7271 83.0397 61.4476 83.3209 61.9252 83.6705C62.4028 84.0201 62.7044 84.4076 62.8301 84.8332C62.9557 85.2588 63.0144 85.7679 63.0228 86.3531C63.0312 86.9382 63.0898 87.303 63.1903 87.4474C63.2909 87.5842 63.4836 87.6602 63.7685 87.6602C64.0785 87.6602 64.4136 87.5766 64.7739 87.4018V87.9945C64.1874 88.2605 63.5422 88.3897 62.8384 88.3897C61.9084 88.3897 61.1628 88.1845 60.6098 87.7818C60.0484 87.379 59.7552 86.6419 59.7133 85.5779C59.6714 84.514 59.5122 83.8225 59.2357 83.5033C58.9592 83.1841 58.4481 83.0245 57.7024 83.0245H57.0489ZM57.0489 78.4193V82.523H58.18C58.9676 82.523 59.5122 82.3938 59.8138 82.143C60.1154 81.8922 60.2663 81.3147 60.2663 80.418C60.2663 79.5516 60.1238 79.0045 59.839 78.7765C59.5541 78.5409 59.0598 78.4269 58.3476 78.4269H57.0489V78.4193Z" fill="white"/>
<path d="M74.8284 85.4331H71.058L70.5553 86.5046C70.3543 86.9302 70.2537 87.2418 70.2537 87.4317C70.2537 87.7053 70.5553 87.8421 71.1502 87.8421H71.8121V88.3513H67.958V87.8421H68.3099C68.7707 87.8421 69.0807 87.7737 69.2399 87.6369C69.3991 87.5001 69.6002 87.1886 69.8264 86.6946L74.024 77.7197H74.5435L78.9422 87.8421H80.1822V88.3513H74.2921V87.8421H75.8924L74.8284 85.4331ZM71.3178 84.8936H74.6021L73.027 81.2762L71.3178 84.8936Z" fill="white"/>
<path d="M90.3789 77.9634L90.5213 80.7676H89.8092C89.4321 79.8405 89.0048 79.2021 88.5272 78.8374C88.0497 78.4726 87.4716 78.2902 86.7929 78.2902C86.2148 78.2902 85.7372 78.4498 85.3686 78.7614C84.9915 79.0805 84.8072 79.4453 84.8072 79.8557C84.8072 80.3724 84.9999 80.722 85.3937 80.912C85.7875 81.102 86.4578 81.292 87.4213 81.4667C88.8875 81.7403 89.8762 82.1583 90.3789 82.713C90.8816 83.2678 91.1329 83.9669 91.1329 84.8181C91.1329 85.8212 90.7978 86.6799 90.1359 87.4095C89.474 88.1314 88.544 88.4962 87.3459 88.4962C86.4913 88.4962 85.7288 88.2606 85.0418 87.797C84.7067 88.025 84.405 88.2454 84.1369 88.4658H83.542V85.426H84.2375C84.7569 87.1359 85.7791 87.9946 87.2872 87.9946C88.0832 87.9946 88.6948 87.7894 89.1221 87.3791C89.5494 86.9687 89.7673 86.5127 89.7673 86.0036C89.7673 85.7148 89.6751 85.464 89.4824 85.236C89.2981 85.0081 89.0802 84.8257 88.8289 84.6889C88.5775 84.5521 87.8905 84.3849 86.7594 84.1797C85.6283 83.9745 84.7988 83.5946 84.271 83.0398C83.7431 82.4851 83.4834 81.7935 83.4834 80.9652C83.4834 80.0761 83.8018 79.3161 84.4469 78.7006C85.0921 78.085 85.8964 77.7734 86.8599 77.7734C87.5888 77.7734 88.3178 77.9938 89.0467 78.4422C89.2813 78.3206 89.5243 78.161 89.7924 77.971H90.3789V77.9634Z" fill="white"/>
<path d="M94.2662 77.9102H104.178L104.253 81.3223H103.709C103.265 79.3844 102.351 78.4193 100.969 78.4193H100.693V87.8426H102.502V88.3517H95.9587V87.8426H97.7601V78.4193H97.492C96.1011 78.4193 95.1879 79.3844 94.7438 81.3223H94.1992L94.2662 77.9102Z" fill="white"/>
<path d="M113.411 85.4331H109.641L109.138 86.5046C108.937 86.9302 108.836 87.2418 108.836 87.4317C108.836 87.7053 109.138 87.8421 109.733 87.8421H110.395V88.3513H106.541V87.8421H106.892C107.353 87.8421 107.663 87.7737 107.822 87.6369C107.982 87.5001 108.183 87.1886 108.409 86.6946L112.607 77.7197H113.126L117.525 87.8421H118.765V88.3513H112.858V87.8421H114.458L113.411 85.4331ZM109.892 84.8936H113.176L111.601 81.2762L109.892 84.8936Z" fill="white"/>
</svg>
